<svg width="1024" height="1024" viewBox="0 0 1024 1024" fill="none" xmlns="http://www.w3.org/2000/svg">
  <defs>
    <linearGradient id="sky" x1="512" y1="0" x2="512" y2="1024" gradientUnits="userSpaceOnUse">
      <stop offset="0" stop-color="#E8F4FD"/>
      <stop offset="0.62" stop-color="#C5E3F5"/>
      <stop offset="1" stop-color="#5AAFDE"/>
    </linearGradient>
    <radialGradient id="glowOne" cx="0" cy="0" r="1" gradientUnits="userSpaceOnUse" gradientTransform="translate(244 220) rotate(16.7358) scale(278.535 159.476)">
      <stop stop-color="white" stop-opacity="0.72"/>
      <stop offset="1" stop-color="white" stop-opacity="0"/>
    </radialGradient>
    <radialGradient id="glowTwo" cx="0" cy="0" r="1" gradientUnits="userSpaceOnUse" gradientTransform="translate(768 232) rotate(173.66) scale(220.352 119.353)">
      <stop stop-color="white" stop-opacity="0.52"/>
      <stop offset="1" stop-color="white" stop-opacity="0"/>
    </radialGradient>
    <radialGradient id="cloudHighlight" cx="0" cy="0" r="1" gradientUnits="userSpaceOnUse" gradientTransform="translate(510 382) rotate(90) scale(286 362)">
      <stop stop-color="white" stop-opacity="0.98"/>
      <stop offset="1" stop-color="#F5FBFF" stop-opacity="0.98"/>
    </radialGradient>
    <linearGradient id="scribble" x1="369" y1="550" x2="685" y2="612" gradientUnits="userSpaceOnUse">
      <stop stop-color="#7B97A6" stop-opacity="0.88"/>
      <stop offset="1" stop-color="#5E8195" stop-opacity="0.62"/>
    </linearGradient>
    <filter id="bgBlur" x="55" y="85" width="895" height="837" filterUnits="userSpaceOnUse" color-interpolation-filters="sRGB">
      <feGaussianBlur stdDeviation="28"/>
    </filter>
    <filter id="shadow" x="146" y="218" width="733" height="741" filterUnits="userSpaceOnUse" color-interpolation-filters="sRGB">
      <feOffset dy="18"/>
      <feGaussianBlur stdDeviation="24"/>
      <feColorMatrix type="matrix" values="0 0 0 0 0.337255 0 0 0 0 0.537255 0 0 0 0 0.690196 0 0 0 0.38 0"/>
    </filter>
    <filter id="bubbleBlur" x="441" y="696" width="128" height="242" filterUnits="userSpaceOnUse" color-interpolation-filters="sRGB">
      <feGaussianBlur stdDeviation="2"/>
    </filter>
  </defs>

  <rect width="1024" height="1024" rx="224" fill="url(#sky)"/>

  <g filter="url(#bgBlur)">
    <ellipse cx="250" cy="220" rx="168" ry="90" fill="url(#glowOne)"/>
    <ellipse cx="768" cy="232" rx="138" ry="76" fill="url(#glowTwo)"/>
    <ellipse cx="400" cy="810" rx="218" ry="94" fill="white" fill-opacity="0.22"/>
  </g>

  <g filter="url(#shadow)">
    <path d="M297 709C236 709 186 660 186 599C186 545 226 499 278 491C293 419 355 366 431 366C453 366 474 370 493 378C525 328 581 296 645 296C737 296 812 361 821 450C861 469 888 510 888 558C888 622 836 674 772 674H297V709Z" fill="#6E9BC0"/>
  </g>

  <path d="M291 682C230 682 180 633 180 572C180 518 220 472 272 464C287 392 349 339 425 339C447 339 468 343 487 351C519 301 575 269 639 269C731 269 806 334 815 423C855 442 882 483 882 531C882 595 830 647 766 647H291V682Z" fill="url(#cloudHighlight)"/>
  <path d="M291 682C230 682 180 633 180 572C180 518 220 472 272 464C287 392 349 339 425 339C447 339 468 343 487 351C519 301 575 269 639 269C731 269 806 334 815 423C855 442 882 483 882 531C882 595 830 647 766 647H291V682Z" stroke="white" stroke-opacity="0.78" stroke-width="6"/>

  <path d="M370 557C404 542 435 538 467 554C498 570 526 539 562 548C595 556 621 578 655 566" stroke="url(#scribble)" stroke-width="18" stroke-linecap="round" stroke-linejoin="round"/>
  <path d="M422 625C448 615 477 612 509 627C538 641 564 620 598 625" stroke="url(#scribble)" stroke-width="13" stroke-linecap="round" stroke-linejoin="round" opacity="0.75"/>

  <g filter="url(#bubbleBlur)">
    <circle cx="512" cy="756" r="46" fill="#F4FAFF" fill-opacity="0.96"/>
    <circle cx="512" cy="835" r="31" fill="#F4FAFF" fill-opacity="0.92"/>
    <circle cx="512" cy="896" r="20" fill="#F4FAFF" fill-opacity="0.88"/>
  </g>

  <rect x="22" y="22" width="980" height="980" rx="202" stroke="#5E9EC5" stroke-opacity="0.16" stroke-width="12"/>
</svg>
